# xmcd
#
# Track frame offsets:
#	150
#	21932
#	38097
#	52322
#	73251
#	93269
#	111479
#	144936
#	161668
#	182358
#	198250
#	218399
#	233466
#	247094
#
# Disc length: 3503 seconds
#
# Revision: 0
# Processed by: cddbd v1.5PL3 Copyright (c) Steve Scherf et al.
# Submitted via: dBpowerAMP V4.0
#
DISCID=bf0dad0e
DTITLE=Max Schang - All These Years
DYEAR=1998
DGENRE=Blues
TTITLE0=Gotta Tell You Show
TTITLE1=Kiddieo
TTITLE2=Sally Sue Brown
TTITLE3=Calm Before The Storm
TTITLE4=Drownin' In The Sea Of Love
TTITLE5=Runnin' Blues
TTITLE6=Rainin' Down On Me
TTITLE7=Cryin' For My Baby
TTITLE8=Write Me A Few Of Your Lines
TTITLE9=Room At The Bottom
TTITLE10=Sueno
TTITLE11=Hot Tamale Baby
TTITLE12=Round And Round
TTITLE13=Chicken On Fire
EXTD=
EXTT0=
EXTT1=
EXTT2=
EXTT3=
EXTT4=
EXTT5=
EXTT6=
EXTT7=
EXTT8=
EXTT9=
EXTT10=
EXTT11=
EXTT12=
EXTT13=
PLAYORDER=
